<mxfile host="app.diagrams.net" agent="Mozilla/5.0 (X11; Ubuntu; Linux x86_64; rv:137.0) Gecko/20100101 Firefox/137.0" version="26.2.14">
  <diagram name="Page-1" id="EDkl1NulRuAzpBZKRtjE">
    <mxGraphModel dx="1360" dy="795" grid="1" gridSize="10" guides="1" tooltips="1" connect="1" arrows="1" fold="1" page="1" pageScale="1" pageWidth="850" pageHeight="1100" math="0" shadow="0">
      <root>
        <mxCell id="0" />
        <mxCell id="1" parent="0" />
        <mxCell id="TxrDbAZoUIW2vqNtkdIb-5" value="Unverified Metric" style="rounded=0;whiteSpace=wrap;html=1;" vertex="1" parent="1">
          <mxGeometry x="120" y="40" width="120" height="60" as="geometry" />
        </mxCell>
        <mxCell id="TxrDbAZoUIW2vqNtkdIb-6" value="" style="shape=flexArrow;endArrow=classic;html=1;rounded=0;exitX=1;exitY=0.5;exitDx=0;exitDy=0;entryX=0;entryY=0.5;entryDx=0;entryDy=0;" edge="1" parent="1" source="TxrDbAZoUIW2vqNtkdIb-7" target="TxrDbAZoUIW2vqNtkdIb-8">
          <mxGeometry width="50" height="50" relative="1" as="geometry">
            <mxPoint x="390" y="290" as="sourcePoint" />
            <mxPoint x="590" y="430" as="targetPoint" />
          </mxGeometry>
        </mxCell>
        <mxCell id="TxrDbAZoUIW2vqNtkdIb-7" value="Evaluation in Lab Setting" style="rounded=0;whiteSpace=wrap;html=1;" vertex="1" parent="1">
          <mxGeometry x="120" y="240" width="120" height="60" as="geometry" />
        </mxCell>
        <mxCell id="TxrDbAZoUIW2vqNtkdIb-8" value="Outdoor Real-World Test" style="rounded=0;whiteSpace=wrap;html=1;" vertex="1" parent="1">
          <mxGeometry x="570" y="240" width="120" height="60" as="geometry" />
        </mxCell>
        <mxCell id="TxrDbAZoUIW2vqNtkdIb-9" value="Isolated Disturbance Test Lab Setting" style="rounded=0;whiteSpace=wrap;html=1;" vertex="1" parent="1">
          <mxGeometry x="570" y="460" width="120" height="60" as="geometry" />
        </mxCell>
        <mxCell id="TxrDbAZoUIW2vqNtkdIb-10" value="Outdoor Testing Final" style="rounded=0;whiteSpace=wrap;html=1;" vertex="1" parent="1">
          <mxGeometry x="120" y="460" width="120" height="60" as="geometry" />
        </mxCell>
        <mxCell id="TxrDbAZoUIW2vqNtkdIb-11" value="Verified" style="rounded=0;whiteSpace=wrap;html=1;" vertex="1" parent="1">
          <mxGeometry x="120" y="730" width="120" height="60" as="geometry" />
        </mxCell>
        <mxCell id="TxrDbAZoUIW2vqNtkdIb-12" value="" style="shape=flexArrow;endArrow=classic;html=1;rounded=0;exitX=0.5;exitY=1;exitDx=0;exitDy=0;entryX=0.5;entryY=0;entryDx=0;entryDy=0;" edge="1" parent="1" source="TxrDbAZoUIW2vqNtkdIb-8" target="TxrDbAZoUIW2vqNtkdIb-9">
          <mxGeometry width="50" height="50" relative="1" as="geometry">
            <mxPoint x="400" y="420" as="sourcePoint" />
            <mxPoint x="450" y="370" as="targetPoint" />
          </mxGeometry>
        </mxCell>
        <mxCell id="TxrDbAZoUIW2vqNtkdIb-13" value="" style="shape=flexArrow;endArrow=classic;html=1;rounded=0;entryX=1;entryY=0.5;entryDx=0;entryDy=0;exitX=0;exitY=0.5;exitDx=0;exitDy=0;" edge="1" parent="1" source="TxrDbAZoUIW2vqNtkdIb-9" target="TxrDbAZoUIW2vqNtkdIb-10">
          <mxGeometry width="50" height="50" relative="1" as="geometry">
            <mxPoint x="270" y="480" as="sourcePoint" />
            <mxPoint x="320" y="430" as="targetPoint" />
          </mxGeometry>
        </mxCell>
        <mxCell id="TxrDbAZoUIW2vqNtkdIb-14" value="" style="shape=flexArrow;endArrow=classic;html=1;rounded=0;exitX=0.5;exitY=1;exitDx=0;exitDy=0;entryX=0.5;entryY=0;entryDx=0;entryDy=0;" edge="1" parent="1" source="TxrDbAZoUIW2vqNtkdIb-10" target="TxrDbAZoUIW2vqNtkdIb-11">
          <mxGeometry width="50" height="50" relative="1" as="geometry">
            <mxPoint x="180" y="510" as="sourcePoint" />
            <mxPoint x="180" y="550" as="targetPoint" />
          </mxGeometry>
        </mxCell>
        <mxCell id="TxrDbAZoUIW2vqNtkdIb-16" value="" style="shape=flexArrow;endArrow=classic;html=1;rounded=0;exitX=0.5;exitY=1;exitDx=0;exitDy=0;entryX=0.5;entryY=0;entryDx=0;entryDy=0;" edge="1" parent="1" source="TxrDbAZoUIW2vqNtkdIb-5" target="TxrDbAZoUIW2vqNtkdIb-7">
          <mxGeometry width="50" height="50" relative="1" as="geometry">
            <mxPoint x="140" y="340" as="sourcePoint" />
            <mxPoint x="180" y="160" as="targetPoint" />
          </mxGeometry>
        </mxCell>
        <mxCell id="TxrDbAZoUIW2vqNtkdIb-17" value="Metric verified indoor" style="text;html=1;align=center;verticalAlign=middle;whiteSpace=wrap;rounded=0;" vertex="1" parent="1">
          <mxGeometry x="290" y="240" width="190" height="30" as="geometry" />
        </mxCell>
        <mxCell id="TxrDbAZoUIW2vqNtkdIb-18" value="Identified Disturbances" style="text;html=1;align=center;verticalAlign=middle;whiteSpace=wrap;rounded=0;" vertex="1" parent="1">
          <mxGeometry x="630" y="300" width="80" height="130" as="geometry" />
        </mxCell>
        <mxCell id="TxrDbAZoUIW2vqNtkdIb-19" value="Evaluated Disturbances Weighting" style="text;html=1;align=center;verticalAlign=middle;whiteSpace=wrap;rounded=0;" vertex="1" parent="1">
          <mxGeometry x="315" y="460" width="220" height="30" as="geometry" />
        </mxCell>
        <mxCell id="TxrDbAZoUIW2vqNtkdIb-20" value="Verified Metric" style="text;html=1;align=center;verticalAlign=middle;whiteSpace=wrap;rounded=0;" vertex="1" parent="1">
          <mxGeometry x="180" y="520" width="60" height="180" as="geometry" />
        </mxCell>
        <mxCell id="TxrDbAZoUIW2vqNtkdIb-24" value="" style="curved=1;endArrow=classic;html=1;rounded=0;exitX=0.5;exitY=0;exitDx=0;exitDy=0;entryX=0.25;entryY=0;entryDx=0;entryDy=0;" edge="1" parent="1" source="TxrDbAZoUIW2vqNtkdIb-10" target="TxrDbAZoUIW2vqNtkdIb-9">
          <mxGeometry width="50" height="50" relative="1" as="geometry">
            <mxPoint x="180" y="440" as="sourcePoint" />
            <mxPoint x="230" y="390" as="targetPoint" />
            <Array as="points">
              <mxPoint x="150" y="390" />
              <mxPoint x="180" y="390" />
              <mxPoint x="530" y="390" />
            </Array>
          </mxGeometry>
        </mxCell>
        <mxCell id="TxrDbAZoUIW2vqNtkdIb-25" value="&lt;b&gt;&lt;u&gt;Move Back &lt;/u&gt;&lt;/b&gt;to &lt;u&gt;&lt;b&gt;Phase Three&lt;/b&gt;&lt;/u&gt; if not satisfactory" style="text;html=1;align=center;verticalAlign=middle;whiteSpace=wrap;rounded=0;" vertex="1" parent="1">
          <mxGeometry x="170" y="360" width="250" height="30" as="geometry" />
        </mxCell>
        <mxCell id="TxrDbAZoUIW2vqNtkdIb-27" value="&lt;font style=&quot;font-size: 24px;&quot;&gt;Experiment &amp;amp; Test Flowchart&lt;/font&gt;" style="text;html=1;align=center;verticalAlign=middle;whiteSpace=wrap;rounded=0;" vertex="1" parent="1">
          <mxGeometry x="280" y="100" width="290" height="100" as="geometry" />
        </mxCell>
        <mxCell id="TxrDbAZoUIW2vqNtkdIb-29" value="&lt;u&gt;&lt;b&gt;Phase One&lt;/b&gt;&lt;/u&gt;" style="text;html=1;align=center;verticalAlign=middle;whiteSpace=wrap;rounded=0;" vertex="1" parent="1">
          <mxGeometry x="80" y="200" width="80" height="40" as="geometry" />
        </mxCell>
        <mxCell id="TxrDbAZoUIW2vqNtkdIb-30" value="&lt;u&gt;&lt;b&gt;Phase Two&lt;/b&gt;&lt;/u&gt;" style="text;html=1;align=center;verticalAlign=middle;whiteSpace=wrap;rounded=0;" vertex="1" parent="1">
          <mxGeometry x="650" y="210" width="80" height="30" as="geometry" />
        </mxCell>
        <mxCell id="TxrDbAZoUIW2vqNtkdIb-31" value="&lt;u&gt;&lt;b&gt;Phase Three&lt;/b&gt;&lt;/u&gt;" style="text;html=1;align=center;verticalAlign=middle;whiteSpace=wrap;rounded=0;" vertex="1" parent="1">
          <mxGeometry x="650" y="425" width="80" height="30" as="geometry" />
        </mxCell>
        <mxCell id="TxrDbAZoUIW2vqNtkdIb-32" value="&lt;u&gt;&lt;b&gt;Phase Four&lt;/b&gt;&lt;/u&gt;" style="text;html=1;align=center;verticalAlign=middle;whiteSpace=wrap;rounded=0;" vertex="1" parent="1">
          <mxGeometry x="90" y="420" width="70" height="40" as="geometry" />
        </mxCell>
        <mxCell id="TxrDbAZoUIW2vqNtkdIb-34" value="&lt;u&gt;&lt;b&gt;Test Start&lt;/b&gt;&lt;/u&gt;" style="text;html=1;align=center;verticalAlign=middle;whiteSpace=wrap;rounded=0;" vertex="1" parent="1">
          <mxGeometry x="120" y="10" width="60" height="30" as="geometry" />
        </mxCell>
      </root>
    </mxGraphModel>
  </diagram>
</mxfile>
